# xmcd
#
# Track frame offsets:
#	150
#	10738
#	25455
#	34235
#	43531
#	56790
#	70322
#	80700
#	91397
#	103674
#	118618
#	134423
#	146758
#
# Disc length: 2130 seconds
# Revision: 0
# Processed by: cddbd v1.5.2PL0 Copyright (c) Steve Scherf et al.
# Submitted via: dBpowerAMP V12.0
#
DISCID=ba08500d
DTITLE=Maxim Turbulenc - Všecky pecky
DYEAR=2010
DGENRE=Country
TTITLE0=Buráky
TTITLE1=Chtěl bych být medvídkem
TTITLE2=Lodní zvon zní
TTITLE3=Šlapej dál
TTITLE4=Admirálská krčma
TTITLE5=Černá Mary
TTITLE6=Dany Truck
TTITLE7=Hop tam s jednou
TTITLE8=Máky (Horký den)
TTITLE9=Rikatádo
TTITLE10=V pondělí prohlížím koleje
TTITLE11=Oh, Ruby
TTITLE12=Tisíc mil
EXTD=
EXTT0=
EXTT1=
EXTT2=
EXTT3=
EXTT4=
EXTT5=
EXTT6=
EXTT7=
EXTT8=
EXTT9=
EXTT10=
EXTT11=
EXTT12=
PLAYORDER=
